<?xml version='1.0' encoding='UTF-8'?>
<svg width="29.6mm" height="29.6mm" version="1.1" viewBox="0 0 29.6 29.6" xmlns="http://www.w3.org/2000/svg"><rect width="29.6" height="29.6" fill="#fff"/><path d="M1.6,1.6H2.4V2.4H1.6zM2.4,1.6H3.2V2.4H2.4zM3.2,1.6H4V2.4H3.2zM4,1.6H4.8V2.4H4zM4.8,1.6H5.6V2.4H4.8zM5.6,1.6H6.4V2.4H5.6zM6.4,1.6H7.2V2.4H6.4zM8,1.6H8.8V2.4H8zM8.8,1.6H9.6V2.4H8.8zM10.4,1.6H11.2V2.4H10.4zM11.2,1.6H12V2.4H11.2zM14.4,1.6H15.2V2.4H14.4zM15.2,1.6H16V2.4H15.2zM16,1.6H16.8V2.4H16zM16.8,1.6H17.6V2.4H16.8zM17.6,1.6H18.4V2.4H17.6zM18.4,1.6H19.2V2.4H18.4zM20,1.6H20.8V2.4H20zM22.4,1.6H23.2V2.4H22.4zM23.2,1.6H24V2.4H23.2zM24,1.6H24.8V2.4H24zM24.8,1.6H25.6V2.4H24.8zM25.6,1.6H26.4V2.4H25.6zM26.4,1.6H27.2V2.4H26.4zM27.2,1.6H28V2.4H27.2zM1.6,2.4H2.4V3.2H1.6zM6.4,2.4H7.2V3.2H6.4zM8,2.4H8.8V3.2H8zM9.6,2.4H10.4V3.2H9.6zM10.4,2.4H11.2V3.2H10.4zM11.2,2.4H12V3.2H11.2zM12.8,2.4H13.6V3.2H12.8zM14.4,2.4H15.2V3.2H14.4zM16,2.4H16.8V3.2H16zM18.4,2.4H19.2V3.2H18.4zM20,2.4H20.8V3.2H20zM22.4,2.4H23.2V3.2H22.4zM27.2,2.4H28V3.2H27.2zM1.6,3.2H2.4V4H1.6zM3.2,3.2H4V4H3.2zM4,3.2H4.8V4H4zM4.8,3.2H5.6V4H4.8zM6.4,3.2H7.2V4H6.4zM11.2,3.2H12V4H11.2zM12,3.2H12.8V4H12zM12.8,3.2H13.6V4H12.8zM16,3.2H16.8V4H16zM17.6,3.2H18.4V4H17.6zM19.2,3.2H20V4H19.2zM20,3.2H20.8V4H20zM20.8,3.2H21.6V4H20.8zM22.4,3.2H23.2V4H22.4zM24,3.2H24.8V4H24zM24.8,3.2H25.6V4H24.8zM25.6,3.2H26.4V4H25.6zM27.2,3.2H28V4H27.2zM1.6,4H2.4V4.8H1.6zM3.2,4H4V4.8H3.2zM4,4H4.8V4.8H4zM4.8,4H5.6V4.8H4.8zM6.4,4H7.2V4.8H6.4zM8,4H8.8V4.8H8zM9.6,4H10.4V4.8H9.6zM13.6,4H14.4V4.8H13.6zM16,4H16.8V4.8H16zM19.2,4H20V4.8H19.2zM20,4H20.8V4.8H20zM22.4,4H23.2V4.8H22.4zM24,4H24.8V4.8H24zM24.8,4H25.6V4.8H24.8zM25.6,4H26.4V4.8H25.6zM27.2,4H28V4.8H27.2zM1.6,4.8H2.4V5.6H1.6zM3.2,4.8H4V5.6H3.2zM4,4.8H4.8V5.6H4zM4.8,4.8H5.6V5.6H4.8zM6.4,4.8H7.2V5.6H6.4zM9.6,4.8H10.4V5.6H9.6zM11.2,4.8H12V5.6H11.2zM14.4,4.8H15.2V5.6H14.4zM15.2,4.8H16V5.6H15.2zM16.8,4.8H17.6V5.6H16.8zM17.6,4.8H18.4V5.6H17.6zM18.4,4.8H19.2V5.6H18.4zM19.2,4.8H20V5.6H19.2zM20.8,4.8H21.6V5.6H20.8zM22.4,4.8H23.2V5.6H22.4zM24,4.8H24.8V5.6H24zM24.8,4.8H25.6V5.6H24.8zM25.6,4.8H26.4V5.6H25.6zM27.2,4.8H28V5.6H27.2zM1.6,5.6H2.4V6.4H1.6zM6.4,5.6H7.2V6.4H6.4zM9.6,5.6H10.4V6.4H9.6zM13.6,5.6H14.4V6.4H13.6zM14.4,5.6H15.2V6.4H14.4zM16,5.6H16.8V6.4H16zM16.8,5.6H17.6V6.4H16.8zM22.4,5.6H23.2V6.4H22.4zM27.2,5.6H28V6.4H27.2zM1.6,6.4H2.4V7.2H1.6zM2.4,6.4H3.2V7.2H2.4zM3.2,6.4H4V7.2H3.2zM4,6.4H4.8V7.2H4zM4.8,6.4H5.6V7.2H4.8zM5.6,6.4H6.4V7.2H5.6zM6.4,6.4H7.2V7.2H6.4zM8,6.4H8.8V7.2H8zM9.6,6.4H10.4V7.2H9.6zM11.2,6.4H12V7.2H11.2zM12.8,6.4H13.6V7.2H12.8zM14.4,6.4H15.2V7.2H14.4zM16,6.4H16.8V7.2H16zM17.6,6.4H18.4V7.2H17.6zM19.2,6.4H20V7.2H19.2zM20.8,6.4H21.6V7.2H20.8zM22.4,6.4H23.2V7.2H22.4zM23.2,6.4H24V7.2H23.2zM24,6.4H24.8V7.2H24zM24.8,6.4H25.6V7.2H24.8zM25.6,6.4H26.4V7.2H25.6zM26.4,6.4H27.2V7.2H26.4zM27.2,6.4H28V7.2H27.2zM8,7.2H8.8V8H8zM8.8,7.2H9.6V8H8.8zM9.6,7.2H10.4V8H9.6zM10.4,7.2H11.2V8H10.4zM11.2,7.2H12V8H11.2zM12.8,7.2H13.6V8H12.8zM13.6,7.2H14.4V8H13.6zM14.4,7.2H15.2V8H14.4zM15.2,7.2H16V8H15.2zM16,7.2H16.8V8H16zM16.8,7.2H17.6V8H16.8zM17.6,7.2H18.4V8H17.6zM20,7.2H20.8V8H20zM20.8,7.2H21.6V8H20.8zM1.6,8H2.4V8.8H1.6zM3.2,8H4V8.8H3.2zM4,8H4.8V8.8H4zM5.6,8H6.4V8.8H5.6zM6.4,8H7.2V8.8H6.4zM7.2,8H8V8.8H7.2zM11.2,8H12V8.8H11.2zM13.6,8H14.4V8.8H13.6zM15.2,8H16V8.8H15.2zM16,8H16.8V8.8H16zM16.8,8H17.6V8.8H16.8zM17.6,8H18.4V8.8H17.6zM18.4,8H19.2V8.8H18.4zM22.4,8H23.2V8.8H22.4zM24.8,8H25.6V8.8H24.8zM26.4,8H27.2V8.8H26.4zM27.2,8H28V8.8H27.2zM1.6,8.8H2.4V9.6H1.6zM2.4,8.8H3.2V9.6H2.4zM4,8.8H4.8V9.6H4zM4.8,8.8H5.6V9.6H4.8zM7.2,8.8H8V9.6H7.2zM8.8,8.8H9.6V9.6H8.8zM9.6,8.8H10.4V9.6H9.6zM11.2,8.8H12V9.6H11.2zM12,8.8H12.8V9.6H12zM14.4,8.8H15.2V9.6H14.4zM15.2,8.8H16V9.6H15.2zM16,8.8H16.8V9.6H16zM16.8,8.8H17.6V9.6H16.8zM17.6,8.8H18.4V9.6H17.6zM20,8.8H20.8V9.6H20zM22.4,8.8H23.2V9.6H22.4zM23.2,8.8H24V9.6H23.2zM24.8,8.8H25.6V9.6H24.8zM25.6,8.8H26.4V9.6H25.6zM27.2,8.8H28V9.6H27.2zM1.6,9.6H2.4V10.4H1.6zM2.4,9.6H3.2V10.4H2.4zM4,9.6H4.8V10.4H4zM5.6,9.6H6.4V10.4H5.6zM6.4,9.6H7.2V10.4H6.4zM8.8,9.6H9.6V10.4H8.8zM9.6,9.6H10.4V10.4H9.6zM10.4,9.6H11.2V10.4H10.4zM12,9.6H12.8V10.4H12zM16,9.6H16.8V10.4H16zM20,9.6H20.8V10.4H20zM20.8,9.6H21.6V10.4H20.8zM23.2,9.6H24V10.4H23.2zM24,9.6H24.8V10.4H24zM24.8,9.6H25.6V10.4H24.8zM27.2,9.6H28V10.4H27.2zM2.4,10.4H3.2V11.2H2.4zM3.2,10.4H4V11.2H3.2zM4,10.4H4.8V11.2H4zM5.6,10.4H6.4V11.2H5.6zM8.8,10.4H9.6V11.2H8.8zM9.6,10.4H10.4V11.2H9.6zM14.4,10.4H15.2V11.2H14.4zM15.2,10.4H16V11.2H15.2zM16.8,10.4H17.6V11.2H16.8zM17.6,10.4H18.4V11.2H17.6zM23.2,10.4H24V11.2H23.2zM24.8,10.4H25.6V11.2H24.8zM27.2,10.4H28V11.2H27.2zM3.2,11.2H4V12H3.2zM4.8,11.2H5.6V12H4.8zM5.6,11.2H6.4V12H5.6zM6.4,11.2H7.2V12H6.4zM7.2,11.2H8V12H7.2zM8,11.2H8.8V12H8zM8.8,11.2H9.6V12H8.8zM10.4,11.2H11.2V12H10.4zM12.8,11.2H13.6V12H12.8zM14.4,11.2H15.2V12H14.4zM16.8,11.2H17.6V12H16.8zM17.6,11.2H18.4V12H17.6zM20,11.2H20.8V12H20zM21.6,11.2H22.4V12H21.6zM23.2,11.2H24V12H23.2zM24,11.2H24.8V12H24zM24.8,11.2H25.6V12H24.8zM26.4,11.2H27.2V12H26.4zM27.2,11.2H28V12H27.2zM1.6,12H2.4V12.8H1.6zM3.2,12H4V12.8H3.2zM4,12H4.8V12.8H4zM7.2,12H8V12.8H7.2zM8.8,12H9.6V12.8H8.8zM12,12H12.8V12.8H12zM12.8,12H13.6V12.8H12.8zM15.2,12H16V12.8H15.2zM16.8,12H17.6V12.8H16.8zM18.4,12H19.2V12.8H18.4zM20.8,12H21.6V12.8H20.8zM23.2,12H24V12.8H23.2zM25.6,12H26.4V12.8H25.6zM26.4,12H27.2V12.8H26.4zM1.6,12.8H2.4V13.6H1.6zM2.4,12.8H3.2V13.6H2.4zM4,12.8H4.8V13.6H4zM4.8,12.8H5.6V13.6H4.8zM5.6,12.8H6.4V13.6H5.6zM6.4,12.8H7.2V13.6H6.4zM7.2,12.8H8V13.6H7.2zM9.6,12.8H10.4V13.6H9.6zM10.4,12.8H11.2V13.6H10.4zM12,12.8H12.8V13.6H12zM12.8,12.8H13.6V13.6H12.8zM15.2,12.8H16V13.6H15.2zM16.8,12.8H17.6V13.6H16.8zM17.6,12.8H18.4V13.6H17.6zM19.2,12.8H20V13.6H19.2zM20.8,12.8H21.6V13.6H20.8zM22.4,12.8H23.2V13.6H22.4zM23.2,12.8H24V13.6H23.2zM24,12.8H24.8V13.6H24zM24.8,12.8H25.6V13.6H24.8zM25.6,12.8H26.4V13.6H25.6zM1.6,13.6H2.4V14.4H1.6zM2.4,13.6H3.2V14.4H2.4zM3.2,13.6H4V14.4H3.2zM4,13.6H4.8V14.4H4zM4.8,13.6H5.6V14.4H4.8zM7.2,13.6H8V14.4H7.2zM8.8,13.6H9.6V14.4H8.8zM11.2,13.6H12V14.4H11.2zM13.6,13.6H14.4V14.4H13.6zM16,13.6H16.8V14.4H16zM18.4,13.6H19.2V14.4H18.4zM19.2,13.6H20V14.4H19.2zM20,13.6H20.8V14.4H20zM20.8,13.6H21.6V14.4H20.8zM21.6,13.6H22.4V14.4H21.6zM22.4,13.6H23.2V14.4H22.4zM24,13.6H24.8V14.4H24zM25.6,13.6H26.4V14.4H25.6zM3.2,14.4H4V15.2H3.2zM4,14.4H4.8V15.2H4zM4.8,14.4H5.6V15.2H4.8zM5.6,14.4H6.4V15.2H5.6zM6.4,14.4H7.2V15.2H6.4zM8,14.4H8.8V15.2H8zM12.8,14.4H13.6V15.2H12.8zM17.6,14.4H18.4V15.2H17.6zM18.4,14.4H19.2V15.2H18.4zM19.2,14.4H20V15.2H19.2zM20,14.4H20.8V15.2H20zM21.6,14.4H22.4V15.2H21.6zM22.4,14.4H23.2V15.2H22.4zM24,14.4H24.8V15.2H24zM24.8,14.4H25.6V15.2H24.8zM25.6,14.4H26.4V15.2H25.6zM1.6,15.2H2.4V16H1.6zM2.4,15.2H3.2V16H2.4zM4,15.2H4.8V16H4zM7.2,15.2H8V16H7.2zM9.6,15.2H10.4V16H9.6zM11.2,15.2H12V16H11.2zM12.8,15.2H13.6V16H12.8zM13.6,15.2H14.4V16H13.6zM18.4,15.2H19.2V16H18.4zM19.2,15.2H20V16H19.2zM20,15.2H20.8V16H20zM20.8,15.2H21.6V16H20.8zM22.4,15.2H23.2V16H22.4zM24,15.2H24.8V16H24zM24.8,15.2H25.6V16H24.8zM26.4,15.2H27.2V16H26.4zM27.2,15.2H28V16H27.2zM1.6,16H2.4V16.8H1.6zM2.4,16H3.2V16.8H2.4zM3.2,16H4V16.8H3.2zM4,16H4.8V16.8H4zM4.8,16H5.6V16.8H4.8zM6.4,16H7.2V16.8H6.4zM8,16H8.8V16.8H8zM9.6,16H10.4V16.8H9.6zM10.4,16H11.2V16.8H10.4zM13.6,16H14.4V16.8H13.6zM16,16H16.8V16.8H16zM17.6,16H18.4V16.8H17.6zM18.4,16H19.2V16.8H18.4zM19.2,16H20V16.8H19.2zM20.8,16H21.6V16.8H20.8zM21.6,16H22.4V16.8H21.6zM22.4,16H23.2V16.8H22.4zM23.2,16H24V16.8H23.2zM24,16H24.8V16.8H24zM25.6,16H26.4V16.8H25.6zM26.4,16H27.2V16.8H26.4zM3.2,16.8H4V17.6H3.2zM4,16.8H4.8V17.6H4zM4.8,16.8H5.6V17.6H4.8zM9.6,16.8H10.4V17.6H9.6zM10.4,16.8H11.2V17.6H10.4zM12,16.8H12.8V17.6H12zM14.4,16.8H15.2V17.6H14.4zM15.2,16.8H16V17.6H15.2zM16,16.8H16.8V17.6H16zM17.6,16.8H18.4V17.6H17.6zM19.2,16.8H20V17.6H19.2zM20,16.8H20.8V17.6H20zM24,16.8H24.8V17.6H24zM26.4,16.8H27.2V17.6H26.4zM27.2,16.8H28V17.6H27.2zM2.4,17.6H3.2V18.4H2.4zM3.2,17.6H4V18.4H3.2zM4.8,17.6H5.6V18.4H4.8zM5.6,17.6H6.4V18.4H5.6zM6.4,17.6H7.2V18.4H6.4zM8,17.6H8.8V18.4H8zM10.4,17.6H11.2V18.4H10.4zM11.2,17.6H12V18.4H11.2zM14.4,17.6H15.2V18.4H14.4zM16.8,17.6H17.6V18.4H16.8zM18.4,17.6H19.2V18.4H18.4zM20,17.6H20.8V18.4H20zM20.8,17.6H21.6V18.4H20.8zM24.8,17.6H25.6V18.4H24.8zM25.6,17.6H26.4V18.4H25.6zM26.4,17.6H27.2V18.4H26.4zM27.2,17.6H28V18.4H27.2zM1.6,18.4H2.4V19.2H1.6zM2.4,18.4H3.2V19.2H2.4zM3.2,18.4H4V19.2H3.2zM7.2,18.4H8V19.2H7.2zM8,18.4H8.8V19.2H8zM9.6,18.4H10.4V19.2H9.6zM11.2,18.4H12V19.2H11.2zM12,18.4H12.8V19.2H12zM13.6,18.4H14.4V19.2H13.6zM14.4,18.4H15.2V19.2H14.4zM15.2,18.4H16V19.2H15.2zM16.8,18.4H17.6V19.2H16.8zM17.6,18.4H18.4V19.2H17.6zM18.4,18.4H19.2V19.2H18.4zM19.2,18.4H20V19.2H19.2zM20,18.4H20.8V19.2H20zM22.4,18.4H23.2V19.2H22.4zM23.2,18.4H24V19.2H23.2zM24.8,18.4H25.6V19.2H24.8zM27.2,18.4H28V19.2H27.2zM4,19.2H4.8V20H4zM5.6,19.2H6.4V20H5.6zM6.4,19.2H7.2V20H6.4zM7.2,19.2H8V20H7.2zM13.6,19.2H14.4V20H13.6zM16,19.2H16.8V20H16zM17.6,19.2H18.4V20H17.6zM20,19.2H20.8V20H20zM20.8,19.2H21.6V20H20.8zM23.2,19.2H24V20H23.2zM26.4,19.2H27.2V20H26.4zM27.2,19.2H28V20H27.2zM2.4,20H3.2V20.8H2.4zM3.2,20H4V20.8H3.2zM4,20H4.8V20.8H4zM4.8,20H5.6V20.8H4.8zM7.2,20H8V20.8H7.2zM9.6,20H10.4V20.8H9.6zM12.8,20H13.6V20.8H12.8zM13.6,20H14.4V20.8H13.6zM16.8,20H17.6V20.8H16.8zM17.6,20H18.4V20.8H17.6zM20.8,20H21.6V20.8H20.8zM21.6,20H22.4V20.8H21.6zM22.4,20H23.2V20.8H22.4zM24.8,20H25.6V20.8H24.8zM1.6,20.8H2.4V21.6H1.6zM3.2,20.8H4V21.6H3.2zM4.8,20.8H5.6V21.6H4.8zM5.6,20.8H6.4V21.6H5.6zM6.4,20.8H7.2V21.6H6.4zM7.2,20.8H8V21.6H7.2zM8.8,20.8H9.6V21.6H8.8zM11.2,20.8H12V21.6H11.2zM14.4,20.8H15.2V21.6H14.4zM15.2,20.8H16V21.6H15.2zM17.6,20.8H18.4V21.6H17.6zM19.2,20.8H20V21.6H19.2zM20.8,20.8H21.6V21.6H20.8zM21.6,20.8H22.4V21.6H21.6zM22.4,20.8H23.2V21.6H22.4zM23.2,20.8H24V21.6H23.2zM24,20.8H24.8V21.6H24zM26.4,20.8H27.2V21.6H26.4zM8,21.6H8.8V22.4H8zM8.8,21.6H9.6V22.4H8.8zM9.6,21.6H10.4V22.4H9.6zM12.8,21.6H13.6V22.4H12.8zM13.6,21.6H14.4V22.4H13.6zM14.4,21.6H15.2V22.4H14.4zM16.8,21.6H17.6V22.4H16.8zM17.6,21.6H18.4V22.4H17.6zM20.8,21.6H21.6V22.4H20.8zM24,21.6H24.8V22.4H24zM24.8,21.6H25.6V22.4H24.8zM1.6,22.4H2.4V23.2H1.6zM2.4,22.4H3.2V23.2H2.4zM3.2,22.4H4V23.2H3.2zM4,22.4H4.8V23.2H4zM4.8,22.4H5.6V23.2H4.8zM5.6,22.4H6.4V23.2H5.6zM6.4,22.4H7.2V23.2H6.4zM8,22.4H8.8V23.2H8zM8.8,22.4H9.6V23.2H8.8zM11.2,22.4H12V23.2H11.2zM12,22.4H12.8V23.2H12zM15.2,22.4H16V23.2H15.2zM16,22.4H16.8V23.2H16zM16.8,22.4H17.6V23.2H16.8zM18.4,22.4H19.2V23.2H18.4zM19.2,22.4H20V23.2H19.2zM20,22.4H20.8V23.2H20zM20.8,22.4H21.6V23.2H20.8zM22.4,22.4H23.2V23.2H22.4zM24,22.4H24.8V23.2H24zM1.6,23.2H2.4V24H1.6zM6.4,23.2H7.2V24H6.4zM8,23.2H8.8V24H8zM11.2,23.2H12V24H11.2zM12.8,23.2H13.6V24H12.8zM13.6,23.2H14.4V24H13.6zM15.2,23.2H16V24H15.2zM16,23.2H16.8V24H16zM16.8,23.2H17.6V24H16.8zM18.4,23.2H19.2V24H18.4zM20,23.2H20.8V24H20zM20.8,23.2H21.6V24H20.8zM24,23.2H24.8V24H24zM24.8,23.2H25.6V24H24.8zM25.6,23.2H26.4V24H25.6zM27.2,23.2H28V24H27.2zM1.6,24H2.4V24.8H1.6zM3.2,24H4V24.8H3.2zM4,24H4.8V24.8H4zM4.8,24H5.6V24.8H4.8zM6.4,24H7.2V24.8H6.4zM8.8,24H9.6V24.8H8.8zM11.2,24H12V24.8H11.2zM13.6,24H14.4V24.8H13.6zM14.4,24H15.2V24.8H14.4zM15.2,24H16V24.8H15.2zM16,24H16.8V24.8H16zM17.6,24H18.4V24.8H17.6zM18.4,24H19.2V24.8H18.4zM19.2,24H20V24.8H19.2zM20,24H20.8V24.8H20zM20.8,24H21.6V24.8H20.8zM21.6,24H22.4V24.8H21.6zM22.4,24H23.2V24.8H22.4zM23.2,24H24V24.8H23.2zM24,24H24.8V24.8H24zM25.6,24H26.4V24.8H25.6zM26.4,24H27.2V24.8H26.4zM1.6,24.8H2.4V25.6H1.6zM3.2,24.8H4V25.6H3.2zM4,24.8H4.8V25.6H4zM4.8,24.8H5.6V25.6H4.8zM6.4,24.8H7.2V25.6H6.4zM8,24.8H8.8V25.6H8zM8.8,24.8H9.6V25.6H8.8zM9.6,24.8H10.4V25.6H9.6zM14.4,24.8H15.2V25.6H14.4zM17.6,24.8H18.4V25.6H17.6zM18.4,24.8H19.2V25.6H18.4zM19.2,24.8H20V25.6H19.2zM20,24.8H20.8V25.6H20zM23.2,24.8H24V25.6H23.2zM27.2,24.8H28V25.6H27.2zM1.6,25.6H2.4V26.4H1.6zM3.2,25.6H4V26.4H3.2zM4,25.6H4.8V26.4H4zM4.8,25.6H5.6V26.4H4.8zM6.4,25.6H7.2V26.4H6.4zM8,25.6H8.8V26.4H8zM8.8,25.6H9.6V26.4H8.8zM9.6,25.6H10.4V26.4H9.6zM11.2,25.6H12V26.4H11.2zM13.6,25.6H14.4V26.4H13.6zM14.4,25.6H15.2V26.4H14.4zM15.2,25.6H16V26.4H15.2zM17.6,25.6H18.4V26.4H17.6zM19.2,25.6H20V26.4H19.2zM22.4,25.6H23.2V26.4H22.4zM23.2,25.6H24V26.4H23.2zM24.8,25.6H25.6V26.4H24.8zM25.6,25.6H26.4V26.4H25.6zM1.6,26.4H2.4V27.2H1.6zM6.4,26.4H7.2V27.2H6.4zM10.4,26.4H11.2V27.2H10.4zM11.2,26.4H12V27.2H11.2zM15.2,26.4H16V27.2H15.2zM16,26.4H16.8V27.2H16zM17.6,26.4H18.4V27.2H17.6zM19.2,26.4H20V27.2H19.2zM20.8,26.4H21.6V27.2H20.8zM21.6,26.4H22.4V27.2H21.6zM22.4,26.4H23.2V27.2H22.4zM23.2,26.4H24V27.2H23.2zM24,26.4H24.8V27.2H24zM27.2,26.4H28V27.2H27.2zM1.6,27.2H2.4V28H1.6zM2.4,27.2H3.2V28H2.4zM3.2,27.2H4V28H3.2zM4,27.2H4.8V28H4zM4.8,27.2H5.6V28H4.8zM5.6,27.2H6.4V28H5.6zM6.4,27.2H7.2V28H6.4zM8,27.2H8.8V28H8zM8.8,27.2H9.6V28H8.8zM10.4,27.2H11.2V28H10.4zM12,27.2H12.8V28H12zM14.4,27.2H15.2V28H14.4zM15.2,27.2H16V28H15.2zM16,27.2H16.8V28H16zM16.8,27.2H17.6V28H16.8zM17.6,27.2H18.4V28H17.6zM18.4,27.2H19.2V28H18.4zM19.2,27.2H20V28H19.2zM20,27.2H20.8V28H20zM21.6,27.2H22.4V28H21.6zM24,27.2H24.8V28H24zM25.6,27.2H26.4V28H25.6z" fill="#111214" fill-opacity="1" fill-rule="nonzero" stroke="none"/></svg>
